<svg id="Layer_1" enable-background="new 0 0 512.002 512.002" height="512" viewBox="0 0 512.002 512.002" width="512" xmlns="http://www.w3.org/2000/svg"><g><path d="m386 176.411c0-71.682-58.317-130-129.999-130-172.226 6.535-172.179 253.491.002 260 71.68 0 129.997-58.318 129.997-130zm-239.999 0c0-60.654 49.346-110 110-110 145.728 5.53 145.689 214.491-.001 220-60.653 0-109.999-49.346-109.999-110z"/><path d="m308.802 404.823c57.503-67.054 123.61-153.686 123.61-228.412 0-97.273-79.138-176.411-176.411-176.411s-176.411 79.138-176.411 176.411c0 74.726 66.107 161.357 123.61 228.412-54.559 6.017-107.198 22.279-107.198 52.179 0 11.897 8.858 28.738 51.061 41.398 29.237 8.771 67.926 13.602 108.938 13.602s79.702-4.831 108.939-13.602c42.202-12.66 51.06-29.501 51.06-41.398 0-29.9-52.639-46.162-107.198-52.179zm-52.801-384.823c86.245 0 156.41 70.166 156.41 156.411-.528 84.818-95.295 188.76-156.41 258.414-61.105-69.633-155.894-173.615-156.411-258.414 0-86.245 70.166-156.411 156.411-156.411zm103.192 459.244c-53.643 16.882-152.741 16.883-206.384-.001-29.115-8.734-36.808-18.368-36.808-22.241 0-8.745 31.228-28.043 103.309-33.604 4.915 5.614 9.705 11.05 14.318 16.284 5.224 5.926 10.196 11.568 14.835 16.89 1.899 2.179 4.648 3.429 7.538 3.429s5.639-1.25 7.538-3.429c4.64-5.322 9.613-10.966 14.837-16.893 4.612-5.233 9.401-10.667 14.315-16.281 72.081 5.561 103.309 24.859 103.309 33.604 0 3.873-7.692 13.507-36.807 22.242z"/><path d="m324.501 217.912c0-5.523-4.478-10-10-10h-5v-42.339c4.399 2.547 10.097 1.385 13.123-2.829 3.222-4.486 2.195-10.734-2.291-13.956l-58.5-42c-3.484-2.502-8.178-2.502-11.664 0l-58.501 42c-4.486 3.221-5.512 9.469-2.291 13.956 3.025 4.214 8.725 5.376 13.124 2.829v42.34h-5.001c-13.232.482-13.264 19.505 0 20h117.001c5.523-.001 10-4.478 10-10.001zm-35-10h-67v-56.639l33.5-24.051 33.5 24.051z"/></g></svg>