<?xml version="1.0" encoding="UTF-8"?>
<svg width="24px" height="24px" viewBox="0 0 24 24" version="1.1" xmlns="http://www.w3.org/2000/svg" xmlns:xlink="http://www.w3.org/1999/xlink">
    <title>ic_bank</title>
    <g id="Page-1" stroke="none" stroke-width="1" fill="none" fill-rule="evenodd">
        <g id="iPhone-8" transform="translate(-127.000000, -345.000000)" fill="#000000" fill-rule="nonzero">
            <g id="ic_bank" transform="translate(127.000000, 345.000000)">
                <path d="M11.9819234,3.26701277 C10.7797787,3.26701277 9.80211064,4.24468085 9.80211064,5.44682553 C9.80211064,6.64897021 10.7797787,7.62658723 11.9819234,7.62658723 C13.1840681,7.62658723 14.1616851,6.64891915 14.1616851,5.44682553 C14.1616851,4.24473191 13.184017,3.26701277 11.9819234,3.26701277 Z M11.9819234,6.53724255 C11.3808511,6.53724255 10.8915064,6.04789787 10.8915064,5.44682553 C10.8915064,4.84575319 11.3808511,4.35640851 11.9819234,4.35640851 C12.5829957,4.35640851 13.0723404,4.84575319 13.0723404,5.44682553 C13.0723404,6.04789787 12.5829957,6.53724255 11.9819234,6.53724255 Z" id="Shape"></path>
                <path d="M23.4212936,9.80425532 C23.722366,9.80425532 23.9659915,9.56211064 23.9659915,9.26108936 L23.9659915,7.08260426 C23.9659915,6.89060426 23.8649362,6.71244255 23.6994894,6.61455319 L13.0446638,0.287029787 C13.0398638,0.283812766 13.0350638,0.281157447 13.0303149,0.278502128 C12.3680681,-0.088493617 11.6212596,-0.0996255319 10.9207149,0.285957447 L0.266502128,6.61455319 C0.101055319,6.71239149 0,6.89060426 0,7.08260426 L0,9.26108936 C0,9.56211064 0.243625532,9.80425532 0.544697872,9.80425532 L2.17874043,9.80425532 L2.17874043,19.6089702 C0.977106383,19.6089702 0,20.5859745 0,21.7874553 L0,23.4213447 C0,23.722366 0.243625532,23.9659915 0.544697872,23.9659915 L23.4212936,23.9659915 C23.722366,23.9659915 23.9659915,23.722417 23.9659915,23.4213447 L23.9659915,21.7874553 C23.9659915,20.5859745 22.9888851,19.6089702 21.7872511,19.6089702 L21.7872511,9.80425532 L23.4212936,9.80425532 Z M22.8765957,21.7872511 L22.8765957,22.8765957 L1.08934468,22.8765957 L1.08934468,21.7872511 C1.08934468,21.1867404 1.57817872,20.6979064 2.17868936,20.6979064 L2.72338723,20.6979064 L21.2425532,20.6979064 L21.7872511,20.6979064 C22.3877617,20.6978553 22.8765957,21.1866894 22.8765957,21.7872511 Z M3.26808511,19.6085106 L3.26808511,9.80425532 L5.44682553,9.80425532 L5.44682553,19.6085106 L3.26808511,19.6085106 Z M6.53617021,19.6085106 L6.53617021,9.80425532 L9.80425532,9.80425532 L9.80425532,19.6085106 L6.53617021,19.6085106 Z M10.8936,19.6085106 L10.8936,9.80425532 L13.0723404,9.80425532 L13.0723404,19.6085106 L10.8936,19.6085106 Z M14.1616851,19.6085106 L14.1616851,9.80425532 L17.4297702,9.80425532 L17.4297702,19.6085106 L14.1616851,19.6085106 Z M18.519166,19.6085106 L18.519166,9.80425532 L20.6979064,9.80425532 L20.6979064,19.6085106 L18.519166,19.6085106 Z M1.08934468,8.71491064 L1.08934468,7.39097872 L11.4611745,1.22925957 C11.8005447,1.04257021 12.1611574,1.04308085 12.4962894,1.22553191 L22.8765957,7.39097872 L22.8765957,8.71491064 L1.08934468,8.71491064 Z" id="Shape"></path>
            </g>
        </g>
    </g>
</svg>