<?xml version="1.0" encoding="UTF-8"?>
<svg width="18px" height="18px" viewBox="0 0 18 18" version="1.1" xmlns="http://www.w3.org/2000/svg" xmlns:xlink="http://www.w3.org/1999/xlink">
    <title>ic_filter</title>
    <g id="Page-1" stroke="none" stroke-width="1" fill="none" fill-rule="evenodd">
        <g id="iPhone-8" transform="translate(-15.000000, -398.000000)" fill="#0DB34C" fill-rule="nonzero">
            <g id="ic_filter" transform="translate(15.000000, 398.000000)">
                <path d="M17.2843594,2.27189063 L6.57525,2.27189063 C6.28082812,1.3974375 5.45371875,0.76565625 4.48125,0.76565625 C3.50878125,0.76565625 2.68167187,1.3974375 2.38725,2.27189063 L0.715640625,2.27189063 C0.327328125,2.27189063 0.012515625,2.58670313 0.012515625,2.97501563 C0.012515625,3.36332813 0.327328125,3.67814063 0.715640625,3.67814063 L2.38729687,3.67814063 C2.68171875,4.55259375 3.50882812,5.184375 4.48129687,5.184375 C5.45376562,5.184375 6.280875,4.55259375 6.57529687,3.67814063 L17.2844062,3.67814063 C17.6727187,3.67814063 17.9875312,3.36332813 17.9875312,2.97501563 C17.9875312,2.58670313 17.6727187,2.27189063 17.2843594,2.27189063 Z M4.48125,3.778125 C4.03842187,3.778125 3.67814062,3.41784375 3.67814062,2.97501563 C3.67814062,2.5321875 4.03842187,2.17190625 4.48125,2.17190625 C4.92407812,2.17190625 5.28435937,2.5321875 5.28435937,2.97501563 C5.28435937,3.41784375 4.92407812,3.778125 4.48125,3.778125 Z" id="Shape"></path>
                <path d="M17.2843594,8.296875 L15.6127031,8.296875 C15.3182812,7.42242187 14.491125,6.79064062 13.5187031,6.79064062 C12.5462812,6.79064062 11.7191719,7.42242187 11.42475,8.296875 L0.715640625,8.296875 C0.327328125,8.296875 0.012515625,8.6116875 0.012515625,9 C0.012515625,9.3883125 0.327328125,9.703125 0.715640625,9.703125 L11.42475,9.703125 C11.7191719,10.5775781 12.5463281,11.2093594 13.51875,11.2093594 C14.4911719,11.2093594 15.3183281,10.5775781 15.61275,9.703125 L17.2844062,9.703125 C17.6727187,9.703125 17.9875312,9.3883125 17.9875312,9 C17.9875312,8.6116875 17.6727187,8.296875 17.2843594,8.296875 Z M13.51875,9.80310937 C13.0759219,9.80310937 12.7156406,9.44282812 12.7156406,9 C12.7156406,8.55717187 13.0759219,8.19689062 13.51875,8.19689062 C13.9615781,8.19689062 14.3218594,8.55717187 14.3218594,9 C14.3218594,9.44282812 13.9615781,9.80310937 13.51875,9.80310937 Z" id="Shape"></path>
                <path d="M17.2843594,14.3218594 L9.58776562,14.3218594 C9.29334375,13.4474063 8.46623437,12.815625 7.49376562,12.815625 C6.52129687,12.815625 5.6941875,13.4474063 5.39976562,14.3218594 L0.715640625,14.3218594 C0.327328125,14.3218594 0.012515625,14.6366719 0.012515625,15.0249844 C0.012515625,15.4132969 0.327328125,15.7281094 0.715640625,15.7281094 L5.39976562,15.7281094 C5.6941875,16.6025625 6.52129687,17.2343438 7.49376562,17.2343438 C8.46623437,17.2343438 9.29334375,16.6025625 9.58776562,15.7281094 L17.2844062,15.7281094 C17.6727187,15.7281094 17.9875312,15.4132969 17.9875312,15.0249844 C17.9875312,14.6366719 17.6727187,14.3218594 17.2843594,14.3218594 Z M7.49376562,15.8281406 C7.0509375,15.8281406 6.69065625,15.4678594 6.69065625,15.0250313 C6.69065625,14.5822031 7.0509375,14.2219219 7.49376562,14.2219219 C7.93659375,14.2219219 8.296875,14.5821563 8.296875,15.0249844 C8.296875,15.4678125 7.93659375,15.8281406 7.49376562,15.8281406 L7.49376562,15.8281406 Z" id="Shape"></path>
            </g>
        </g>
    </g>
</svg>