<?xml version="1.0" encoding="UTF-8"?>
<svg width="26px" height="26px" viewBox="0 0 26 26" version="1.1" xmlns="http://www.w3.org/2000/svg" xmlns:xlink="http://www.w3.org/1999/xlink">
    <title>ic_gift</title>
    <g id="Page-1" stroke="none" stroke-width="1" fill="none" fill-rule="evenodd">
        <g id="iPhone-8" transform="translate(-126.000000, -316.000000)" fill="#000000" fill-rule="nonzero" stroke="#000000" stroke-width="0.5">
            <g id="ic_gift" transform="translate(127.000000, 317.000000)">
                <path d="M18.1743199,0.350223559 C19.071019,0.839990591 19.6308494,1.77823974 19.6360547,2.79996096 C19.6409161,3.76761871 19.1475625,4.66544222 18.3378328,5.18149593 L23.2818055,5.18116467 C23.6599875,5.18116467 23.9665645,5.48774171 23.9665645,5.86592366 L23.9665645,9.28971858 C23.9665645,9.66790053 23.6599875,9.97447757 23.2818055,9.97447757 L22.597,9.97365099 L22.5970465,22.9848983 C22.5970465,23.5521712 22.137181,24.0120368 21.5699081,24.0120368 L2.39665645,24.0120368 C1.82938353,24.0120368 1.36951797,23.5521712 1.36951797,22.9848983 L1.369,9.97365099 L0.684758986,9.97447757 C0.306577041,9.97447757 -3.55271368e-15,9.66790053 -3.55271368e-15,9.28971858 L-3.55271368e-15,5.86592366 C-3.55271368e-15,5.48774171 0.306577041,5.18116467 0.684758986,5.18116467 L5.63,5.18065099 L5.60526932,5.16570927 C4.81009331,4.6472605 4.3267247,3.7578246 4.33153697,2.79996096 C4.33674225,1.77823974 4.89657268,0.839990591 5.79327176,0.350223559 C6.68997083,-0.139543474 7.78195164,-0.103495208 8.64439744,0.444344386 C9.55568023,0.987468929 11.119149,3.42732275 11.984843,4.8583581 C12.8481092,3.42732275 14.4128227,0.987468929 15.3231942,0.444344386 C16.18564,-0.103495208 17.2776208,-0.139543474 18.1743199,0.350223559 Z M6.204,9.97365099 L2.054,9.97365099 L2.05427696,22.9848983 C2.05427696,23.1739893 2.20756548,23.3272778 2.39665645,23.3272778 L9.929,23.326651 L9.929,10.927651 L8.9771903,13.0466488 C8.92193504,13.1695696 8.79970914,13.2486527 8.66494021,13.2486527 L8.64439744,13.2486527 C8.50238071,13.2401885 8.3803964,13.1447817 8.33796779,13.008987 L7.74222747,11.1087808 L5.96185411,11.9113184 C5.8313531,11.9699442 5.67815862,11.9412479 5.57772425,11.8393635 C5.47728987,11.7374791 5.45079238,11.583889 5.5112827,11.4542417 L6.204,9.97365099 Z M21.912,9.97365099 L17.763,9.97365099 L18.4563089,11.453557 C18.5167993,11.5832043 18.4903018,11.7367943 18.3898674,11.8386787 C18.289433,11.9405632 18.1362385,11.9692594 18.0057375,11.9106336 L16.2253642,11.1080961 L15.6296239,13.0083023 C15.5871952,13.144097 15.4652109,13.2395037 15.3231942,13.2479679 L15.3016243,13.2486527 C15.1668554,13.2486527 15.0446295,13.1695696 14.9893742,13.0466488 L14.037,10.927651 L14.037,23.326651 L21.5699081,23.3272778 C21.758999,23.3272778 21.9122875,23.1739893 21.9122875,22.9848983 L21.912,9.97365099 Z M13.352,9.63165099 L10.613,9.63165099 L10.6137643,23.3272778 L13.3528002,23.3272778 L13.352,9.63165099 Z M15.083,5.86565099 L12.512,5.86565099 L14.0055172,9.18599312 C14.0080201,9.1913477 14.0103884,9.19677774 14.0126179,9.2022789 L15.2444469,11.9438444 L15.6861165,10.5352952 C15.7153767,10.4418364 15.7832572,10.3653811 15.8725942,10.3252613 C15.9619311,10.2851415 16.0641719,10.285198 16.1534645,10.3254166 L17.4442352,10.9074617 L15.083,5.86565099 Z M11.454,5.86565099 L8.882,5.86565099 L6.52198696,10.9071193 L7.81275765,10.3250742 C7.90205023,10.2848556 8.00429098,10.2847991 8.09362797,10.3249189 C8.18296496,10.3650387 8.25084546,10.441494 8.28010566,10.5349528 L8.7217752,11.943502 L9.95356195,9.20323205 C9.95432841,9.20132433 9.95511154,9.19942511 9.95591117,9.19753457 L9.961,9.18565099 L11.454,5.86565099 Z M6.524,9.28965099 L8.126,5.86565099 L0.684758986,5.86592366 L0.684758986,9.28971858 L6.524,9.28965099 Z M23.2818055,5.86592366 L15.84,5.86565099 L17.443,9.28965099 L23.2818055,9.28971858 L23.2818055,5.86592366 Z M11.983,6.35765099 L10.819,8.94665099 L13.147,8.94665099 L11.983,6.35765099 Z M6.12959863,0.952558495 C5.44809172,1.32316138 5.0230217,2.03600923 5.02095799,2.81176299 C5.01889428,3.58751675 5.44016559,4.30261609 6.11969106,4.67683968 C6.30727354,4.78904811 6.84683053,5.00317966 8.35363405,5.18149191 L11.3792663,5.18143915 C10.2698005,3.34980948 8.95741611,1.42914839 8.2927737,1.03255235 C7.64050042,0.6126265 6.81110553,0.581955614 6.12959863,0.952558495 Z M15.6741332,1.03220997 C15.009178,1.42911879 13.6970523,3.34980692 12.5873725,5.18117791 L15.613,5.18065099 L15.8283582,5.15505792 C17.1724133,4.98245463 17.6691785,4.78355396 17.8479006,4.67683968 C18.3344462,4.38780452 18.6849048,3.91588159 18.8209431,3.36655336 C19.0291734,2.53468186 18.7159197,1.65927505 18.0271928,1.14836872 C17.3384659,0.637462388 16.4098307,0.591620327 15.6741332,1.03220997 Z" id="Combined-Shape"></path>
            </g>
        </g>
    </g>
</svg>