<?xml version="1.0" encoding="UTF-8"?>
<svg width="24px" height="24px" viewBox="0 0 24 24" version="1.1" xmlns="http://www.w3.org/2000/svg" xmlns:xlink="http://www.w3.org/1999/xlink">
    <title>ic_history</title>
    <g id="Page-1" stroke="none" stroke-width="1" fill="none" fill-rule="evenodd">
        <g id="iPhone-8" transform="translate(-65.000000, -310.000000)" fill="#000000" fill-rule="nonzero">
            <g id="ic_history" transform="translate(77.000000, 322.000000) scale(1, -1) translate(-77.000000, -322.000000) translate(65.000000, 310.000000)">
                <path d="M12,0 C11.6116875,0 11.296875,0.3148125 11.296875,0.703125 C11.296875,1.0914375 11.6116875,1.40625 12,1.40625 C17.8414219,1.40625 22.59375,6.15857812 22.59375,12 C22.59375,17.8414219 17.8414219,22.59375 12,22.59375 C6.15857812,22.59375 1.40625,17.8414219 1.40625,12 C1.40625,9.17076562 2.59546875,6.439125 4.64142187,4.4514375 L4.64142187,5.671875 C4.64142187,6.0601875 4.95623437,6.375 5.34454687,6.375 C5.73285938,6.375 6.046875,6.0601875 6.046875,5.671875 L6.046875,2.859375 C6.046875,2.4710625 5.73285938,2.15625 5.34454687,2.15625 L2.5078125,2.15625 C2.1195,2.15625 1.8046875,2.4710625 1.8046875,2.859375 C1.8046875,3.2476875 2.1195,3.5578125 2.5078125,3.5578125 L3.539625,3.5578125 C1.266,5.82759375 0,8.86307813 0,12 C0,18.5971875 5.40042188,24 12,24 C18.5971875,24 24,18.5995781 24,12 C24,5.4028125 18.5995781,0 12,0 Z" id="Path"></path>
                <path d="M12,4.265625 C7.73554688,4.265625 4.265625,7.73667188 4.265625,12 C4.265625,16.2647344 7.73695313,19.734375 12,19.734375 C16.2644531,19.734375 19.734375,16.2633281 19.734375,12 C19.734375,7.73526563 16.2630469,4.265625 12,4.265625 Z M16.9419844,15.947625 L16.4746875,15.4802812 C16.2001406,15.2056875 15.7549219,15.2056875 15.4803281,15.4802812 C15.2057344,15.754875 15.2057344,16.2000469 15.4803281,16.4746406 L15.9476719,16.9419844 C15.037125,17.67075 13.921875,18.1534687 12.703125,18.2888437 L12.703125,17.625 C12.703125,17.2366875 12.3883125,16.921875 12,16.921875 C11.6116875,16.921875 11.296875,17.2366875 11.296875,17.625 L11.296875,18.2888437 C10.078125,18.1534687 8.962875,17.67075 8.052375,16.9419844 L8.51971875,16.4746406 C8.7943125,16.2000469 8.7943125,15.754875 8.51971875,15.4802812 C8.24517187,15.2056875 7.79995313,15.2056875 7.52535937,15.4802812 L7.05801562,15.947625 C6.32925,15.037125 5.84648438,13.921875 5.71115625,12.703125 L6.375,12.703125 C6.7633125,12.703125 7.078125,12.3883125 7.078125,12 C7.078125,11.6116875 6.7633125,11.296875 6.375,11.296875 L5.71115625,11.296875 C5.84653125,10.078125 6.32925,8.962875 7.05801562,8.052375 L7.52535937,8.51971875 C7.79990625,8.7943125 8.24517187,8.7943125 8.51971875,8.51971875 C8.7943125,8.245125 8.7943125,7.79995313 8.51971875,7.52535937 L8.052375,7.05801562 C8.962875,6.32925 10.078125,5.84653125 11.296875,5.71115625 L11.296875,6.375 C11.296875,6.7633125 11.6116875,7.078125 12,7.078125 C12.3883125,7.078125 12.703125,6.7633125 12.703125,6.375 L12.703125,5.71115625 C13.921875,5.84653125 15.037125,6.32925 15.947625,7.05801562 L15.4802812,7.52535937 C15.2056875,7.79995313 15.2056875,8.245125 15.4802812,8.51971875 C15.7548281,8.7943125 16.2000937,8.7943125 16.4746406,8.51971875 L16.9419375,8.052375 C17.67075,8.962875 18.1535156,10.078125 18.2888437,11.296875 L17.625,11.296875 C17.2366875,11.296875 16.921875,11.6116875 16.921875,12 C16.921875,12.3883125 17.2366875,12.6984375 17.625,12.6984375 L18.2888437,12.6984375 C18.1534687,13.9171875 17.67075,15.037125 16.9419844,15.947625 Z" id="Shape"></path>
                <path d="M13.9034531,12.9090469 L12.703125,11.7087656 L12.703125,9.1875 C12.703125,8.7991875 12.3883125,8.484375 12,8.484375 C11.6116875,8.484375 11.296875,8.7991875 11.296875,9.1875 L11.296875,12 C11.296875,12.1864687 11.3709844,12.3652969 11.5028438,12.4971562 L12.9090938,13.9034062 C13.1836406,14.178 13.6289062,14.178 13.9034531,13.9034062 C14.1780469,13.6288125 14.1780469,13.1836406 13.9034531,12.9090469 Z" id="Path"></path>
            </g>
        </g>
    </g>
</svg>