<?xml version="1.0" encoding="UTF-8"?>
<svg width="24px" height="24px" viewBox="0 0 24 24" version="1.1" xmlns="http://www.w3.org/2000/svg" xmlns:xlink="http://www.w3.org/1999/xlink">
    <title>ic_logout</title>
    <g id="Page-1" stroke="none" stroke-width="1" fill="none" fill-rule="evenodd">
        <g id="Artboard" transform="translate(-34.000000, -82.000000)" fill="#000000" fill-rule="nonzero">
            <g id="ic_logout" transform="translate(34.000000, 82.000000)">
                <path d="M13.5,21 L9.5,21 C9.224,21 9,20.776 9,20.5 C9,20.224 9.224,20 9.5,20 L13.5,20 C14.327,20 15,19.327 15,18.5 L15,13.5 C15,13.224 15.224,13 15.5,13 C15.776,13 16,13.224 16,13.5 L16,18.5 C16,19.878 14.879,21 13.5,21 Z" id="Path"></path>
                <path d="M23.5,11 L13.5,11 C13.224,11 13,10.776 13,10.5 C13,10.224 13.224,10 13.5,10 L23.5,10 C23.776,10 24,10.224 24,10.5 C24,10.776 23.776,11 23.5,11 Z" id="Path"></path>
                <path d="M8,24 C7.78,24 7.565,23.963 7.362,23.891 L1.372,21.894 C0.552,21.621 0,20.859 0,20 L0,2 C0,0.897 0.897,0 2,0 C2.222,0 2.438,0.037 2.639,0.11 L8.628,2.106 C9.448,2.378 10,3.14 10,4 L10,22 C10,23.103 9.103,24 8,24 Z M2,1 C1.448,1 1,1.449 1,2 L1,20 C1,20.428 1.276,20.808 1.688,20.946 L7.688,22.946 C8.344,23.179 9,22.654 9,22 L9,4 C9,3.571 8.724,3.191 8.312,3.055 L2.312,1.055 C2.209,1.018 2.104,1 2,1 Z" id="Shape"></path>
                <path d="M15.5,8 C15.224,8 15,7.776 15,7.5 L15,2.5 C15,1.673 14.327,1 13.5,1 L2,1 C1.724,1 1.5,0.776 1.5,0.5 C1.5,0.224 1.724,0 2,0 L13.5,0 C14.879,0 16,1.122 16,2.5 L16,7.5 C16,7.776 15.776,8 15.5,8 Z" id="Path"></path>
                <path d="M19.5,15 C19.372,15 19.244,14.951 19.146,14.854 C18.951,14.659 18.951,14.342 19.146,14.147 L22.792,10.501 L19.146,6.855 C18.951,6.66 18.951,6.343 19.146,6.148 C19.341,5.953 19.658,5.953 19.853,6.148 L23.853,10.148 C24.048,10.343 24.048,10.66 23.853,10.855 L19.853,14.855 C19.756,14.951 19.628,15 19.5,15 L19.5,15 Z" id="Path"></path>
            </g>
        </g>
    </g>
</svg>