<?xml version="1.0" encoding="UTF-8"?>
<svg width="24px" height="24px" viewBox="0 0 24 24" version="1.1" xmlns="http://www.w3.org/2000/svg" xmlns:xlink="http://www.w3.org/1999/xlink">
    <title>ic_news</title>
    <g id="Page-1" stroke="none" stroke-width="1" fill="none" fill-rule="evenodd">
        <g id="Artboard" transform="translate(-119.000000, -62.000000)" fill="#000000" fill-rule="nonzero">
            <g id="ic_news" transform="translate(119.000000, 62.000000)">
                <path d="M20.5,24 L3.75,24 C1.682,24 0,22.318 0,20.25 L0,2.75 C0,1.233 1.233,0 2.75,0 L15.25,0 C16.767,0 18,1.233 18,2.75 L18,3 L21.25,3 C22.767,3 24,4.233 24,5.75 L24,20.25 C24,22.166 22.556,23.75 20.699,23.973 C20.636,23.991 20.569,24 20.5,24 Z M18,4.5 L18,20.25 C18,21.491 19.009,22.5 20.25,22.5 C21.491,22.5 22.5,21.491 22.5,20.25 L22.5,5.75 C22.5,5.061 21.939,4.5 21.25,4.5 L18,4.5 Z M2.75,1.5 C2.061,1.5 1.5,2.061 1.5,2.75 L1.5,20.25 C1.5,21.491 2.509,22.5 3.75,22.5 L17.252,22.5 C16.78,21.873 16.5,21.093 16.5,20.25 L16.5,2.75 C16.5,2.061 15.939,1.5 15.25,1.5 L2.75,1.5 Z" id="Shape"></path>
                <path d="M8.25,9 L3.75,9 C3.336,9 3,8.664 3,8.25 L3,3.75 C3,3.336 3.336,3 3.75,3 L8.25,3 C8.664,3 9,3.336 9,3.75 L9,8.25 C9,8.664 8.664,9 8.25,9 Z M4.5,7.5 L7.5,7.5 L7.5,4.5 L4.5,4.5 L4.5,7.5 Z" id="Shape"></path>
                <path d="M14.25,5.5 L11.75,5.5 C11.336,5.5 11,5.164 11,4.75 C11,4.336 11.336,4 11.75,4 L14.25,4 C14.664,4 15,4.336 15,4.75 C15,5.164 14.664,5.5 14.25,5.5 Z" id="Path"></path>
                <path d="M14.25,8.5 L11.75,8.5 C11.336,8.5 11,8.164 11,7.75 C11,7.336 11.336,7 11.75,7 L14.25,7 C14.664,7 15,7.336 15,7.75 C15,8.164 14.664,8.5 14.25,8.5 Z" id="Path"></path>
                <path d="M14.25,12.5 L3.75,12.5 C3.336,12.5 3,12.164 3,11.75 C3,11.336 3.336,11 3.75,11 L14.25,11 C14.664,11 15,11.336 15,11.75 C15,12.164 14.664,12.5 14.25,12.5 Z" id="Path"></path>
                <path d="M14.25,16.25 L3.75,16.25 C3.336,16.25 3,15.914 3,15.5 C3,15.086 3.336,14.75 3.75,14.75 L14.25,14.75 C14.664,14.75 15,15.086 15,15.5 C15,15.914 14.664,16.25 14.25,16.25 Z" id="Path"></path>
                <path d="M14.25,20 L3.75,20 C3.336,20 3,19.664 3,19.25 C3,18.836 3.336,18.5 3.75,18.5 L14.25,18.5 C14.664,18.5 15,18.836 15,19.25 C15,19.664 14.664,20 14.25,20 Z" id="Path"></path>
            </g>
        </g>
    </g>
</svg>