<?xml version="1.0" encoding="UTF-8"?>
<svg width="19px" height="24px" viewBox="0 0 19 24" version="1.1" xmlns="http://www.w3.org/2000/svg" xmlns:xlink="http://www.w3.org/1999/xlink">
    <title>notification</title>
    <g id="Page-1" stroke="none" stroke-width="1" fill="none" fill-rule="evenodd">
        <g id="notification" fill="#000000" fill-rule="nonzero">
            <path d="M18.1364063,16.9420781 C17.3693438,16.9420781 16.7452969,16.3180313 16.7452969,15.5509687 L16.7452969,10.658625 C16.7452969,7.47210937 14.6993906,4.75485937 11.8522969,3.75028125 L11.8522969,2.43046875 C11.8523437,1.0903125 10.7620312,-1.33226763e-15 9.421875,-1.33226763e-15 C8.08171875,-1.33226763e-15 6.99145313,1.0903125 6.99145313,2.43046875 L6.99145313,3.75028125 C4.14440625,4.75485937 2.09845313,7.4720625 2.09845313,10.658625 L2.09845313,15.5509687 C2.09845313,16.3180312 1.47440625,16.9420781 0.70734375,16.9420781 C0.31903125,16.9420781 0.00421875,17.2568906 0.00421875,17.6452031 L0.00421875,20.3624062 C0.00421875,20.7507188 0.31903125,21.0655312 0.70734375,21.0655312 L6.75225,21.0655312 L6.75225,21.330375 C6.75225,22.8023906 7.94985938,24 9.421875,24 C10.8938906,24 12.0915,22.8023906 12.0915,21.330375 L12.0915,21.0655312 L18.1364062,21.0655312 C18.5247187,21.0655312 18.8395312,20.7507188 18.8395312,20.3624062 L18.8395312,17.6452031 C18.8395312,17.2568437 18.5247187,16.9420781 18.1364062,16.9420781 L18.1364063,16.9420781 Z M8.39770312,2.43046875 C8.39770312,1.86571875 8.857125,1.40625 9.421875,1.40625 C9.986625,1.40625 10.4460938,1.86571875 10.4460938,2.43046875 L10.4460938,3.40715625 C10.1112656,3.36009375 9.76945313,3.33520312 9.421875,3.33520312 C9.07429687,3.33520312 8.73248438,3.36009375 8.39770312,3.40715625 L8.39770312,2.43046875 Z M10.68525,21.330375 C10.68525,22.0269844 10.1184844,22.59375 9.421875,22.59375 C8.72526563,22.59375 8.1585,22.0269844 8.1585,21.330375 L8.1585,21.0655312 L10.68525,21.0655312 L10.68525,21.330375 Z M17.4332813,19.6592344 L1.41046875,19.6592344 L1.41046875,18.2587969 C2.61365625,17.9461406 3.50470313,16.850625 3.50470313,15.5509219 L3.50470313,10.6585781 C3.50470313,7.39584375 6.15914063,4.74140625 9.421875,4.74140625 C12.6846094,4.74140625 15.3390469,7.39584375 15.3390469,10.6585781 L15.3390469,15.5509219 C15.3390469,16.850625 16.2300938,17.9461406 17.4332813,18.2587969 L17.4332813,19.6592344 Z" id="Shape"></path>
        </g>
    </g>
</svg>