<?xml version="1.0" encoding="UTF-8"?>
<svg width="21px" height="24px" viewBox="0 0 21 24" version="1.1" xmlns="http://www.w3.org/2000/svg" xmlns:xlink="http://www.w3.org/1999/xlink">
    <title>bell</title>
    <g id="Page-1" stroke="none" stroke-width="1" fill="none" fill-rule="evenodd">
        <g id="bell" fill="#000000" fill-rule="nonzero">
            <path d="M11.5,4.18 C11.224,4.18 11,3.956 11,3.68 L11,2 C11,1.449 10.551,1 10,1 C9.449,1 9,1.449 9,2 L9,3.68 C9,3.956 8.776,4.18 8.5,4.18 C8.224,4.18 8,3.957 8,3.68 L8,2 C8,0.897 8.897,-3.33066907e-16 10,-3.33066907e-16 C11.103,-3.33066907e-16 12,0.897 12,2 L12,3.68 C12,3.957 11.776,4.18 11.5,4.18 Z" id="Path"></path>
            <path d="M10,24 C8.07,24 6.5,22.43 6.5,20.5 C6.5,20.224 6.724,20 7,20 C7.276,20 7.5,20.224 7.5,20.5 C7.5,21.878 8.622,23 10,23 C11.378,23 12.5,21.878 12.5,20.5 C12.5,20.224 12.724,20 13,20 C13.276,20 13.5,20.224 13.5,20.5 C13.5,22.43 11.93,24 10,24 Z" id="Path"></path>
            <path d="M18.5,21 L1.5,21 C0.673,21 0,20.327 0,19.5 C0,19.061 0.191,18.646 0.525,18.36 C2.101,17.028 3,15.09 3,13.038 L3,10 C3,6.14 6.14,3 10,3 C13.86,3 17,6.14 17,10 L17,13.038 C17,15.091 17.899,17.028 19.467,18.353 C19.809,18.646 20,19.061 20,19.5 C20,20.327 19.328,21 18.5,21 Z M10,4 C6.691,4 4,6.691 4,10 L4,13.038 C4,15.386 2.972,17.601 1.179,19.117 C1.064,19.215 1,19.354 1,19.5 C1,19.776 1.224,20 1.5,20 L18.5,20 C18.776,20 19,19.776 19,19.5 C19,19.354 18.936,19.215 18.825,19.12 C17.029,17.601 16,15.385 16,13.038 L16,10 C16,6.691 13.309,4 10,4 Z" id="Shape"></path>
        </g>
    </g>
</svg>