<?xml version="1.0" encoding="UTF-8"?>
<svg width="21px" height="24px" viewBox="0 0 21 24" version="1.1" xmlns="http://www.w3.org/2000/svg" xmlns:xlink="http://www.w3.org/1999/xlink">
    <title>ic_shield</title>
    <g id="Page-1" stroke="none" stroke-width="1" fill="none" fill-rule="evenodd">
        <g id="iPhone-8" transform="translate(-172.000000, -345.000000)" fill="#000000" fill-rule="nonzero">
            <g id="ic_shield" transform="translate(172.000000, 345.000000)">
                <path d="M20.4135132,6.5117798 L20.4127807,6.49310302 C20.4023438,6.26257322 20.3953857,6.01867678 20.3911743,5.74731445 C20.371582,4.42401122 19.3196411,3.32940675 17.9961548,3.25543214 C15.2367554,3.10144041 13.1021118,2.20166016 11.2781982,0.423889172 L11.2626343,0.409057594 C10.6677246,-0.136413563 9.77032472,-0.136413563 9.17523192,0.409057594 L9.15966797,0.423889172 C7.33575441,2.20166016 5.20111083,3.10144041 2.44171144,3.25561523 C1.1184082,3.32940675 0.0662841562,4.42401122 0.0466919062,5.74749755 C0.0426635625,6.0170288 0.0355224375,6.26092528 0.0250854375,6.49310302 L0.0239868281,6.536499 C-0.0296630625,9.35028075 -0.0963135,12.8521729 1.07519531,16.0307007 C1.71936038,17.7786255 2.69494631,19.2980347 3.97467042,20.5469971 C5.43218995,21.9693604 7.34124755,23.0985718 9.64874269,23.9031372 C9.72381591,23.9293213 9.80181886,23.9505615 9.88128661,23.9664917 C9.99334716,23.9888306 10.1061401,24 10.2189331,24 C10.3317261,24 10.4447021,23.9888306 10.5565796,23.9664917 C10.6360474,23.9505615 10.7145996,23.9291382 10.7900391,23.902771 C13.0947876,23.0967407 15.001831,21.96698 16.4580689,20.5447998 C17.7372436,19.2954712 18.7128296,17.7756958 19.357544,16.0274048 C20.5334473,12.8393555 20.46698,9.33087159 20.4135132,6.5117798 Z M18.0362549,15.5401612 C16.8006592,18.8902588 14.2783814,21.190979 10.3253174,22.5734253 C10.3112182,22.578186 10.2962036,22.5823974 10.2806396,22.5855103 C10.2398071,22.5935669 10.1982422,22.5935669 10.1568604,22.5853271 C10.1414795,22.5822143 10.1264648,22.578186 10.1125488,22.5734253 C6.15527344,21.1935425 3.63134766,18.894104 2.39666747,15.5438232 C1.31689453,12.6139526 1.37805178,9.39935302 1.43206786,6.56341552 L1.43243409,6.54766847 C1.44342042,6.30395508 1.45074464,6.04870603 1.45477294,5.7681885 C1.463562,5.18060302 1.93157958,4.69445803 2.52026367,4.66168214 C4.08178711,4.57452394 5.45361328,4.27276613 6.71411133,3.73919677 C7.97296144,3.20635988 9.09100341,2.45526122 10.1317749,1.44305419 C10.1846924,1.39837645 10.2533569,1.39819336 10.3060913,1.44305419 C11.3470459,2.45526122 12.4650879,3.20635988 13.7237549,3.73919677 C14.9842529,4.27276613 16.3560791,4.57452394 17.9177857,4.66168214 C18.5064698,4.69445803 18.9744873,5.18060302 18.9830932,5.76837159 C18.9873047,6.05035402 18.9946289,6.30560302 19.0056152,6.54766847 C19.0594482,9.38690184 19.1191406,12.604065 18.0362549,15.5401612 Z" id="Shape"></path>
                <path d="M10.2185669,6.01922606 C6.9204712,6.01922606 4.23742678,8.70245363 4.23742678,12.0003662 C4.23742678,15.2984619 6.9204712,17.9816895 10.2185669,17.9816895 C13.5164795,17.9816895 16.199707,15.2984619 16.199707,12.0003662 C16.199707,8.70245363 13.5164795,6.01922606 10.2185669,6.01922606 Z M10.2185669,16.5732422 C7.69702148,16.5732422 5.64569091,14.5219116 5.64569091,12.0003662 C5.64569091,9.47882081 7.69702148,7.42749023 10.2185669,7.42749023 C12.7399292,7.42749023 14.7912598,9.47882081 14.7912598,12.0003662 C14.7912598,14.5219116 12.7399292,16.5732422 10.2185669,16.5732422 Z" id="Shape"></path>
                <path d="M11.937561,10.1434936 L9.15948488,12.9215698 L8.40545653,12.1675415 C8.13043214,11.8925171 7.68457031,11.8925171 7.40954588,12.1675415 C7.13470458,12.4425659 7.13470458,12.8884277 7.40954588,13.163269 L8.66162109,14.4153443 C8.79913331,14.5528565 8.97930909,14.621521 9.15948488,14.621521 C9.33966066,14.621521 9.51983644,14.5528565 9.65734866,14.4153443 L12.9334717,11.1392212 C13.208313,10.8641968 13.208313,10.4183349 12.9334717,10.1434936 C12.6584473,9.86828616 12.2125854,9.86828616 11.937561,10.1434936 Z" id="Path"></path>
            </g>
        </g>
    </g>
</svg>