<?xml version="1.0" encoding="UTF-8"?>
<svg width="26px" height="23px" viewBox="0 0 26 23" version="1.1" xmlns="http://www.w3.org/2000/svg" xmlns:xlink="http://www.w3.org/1999/xlink">
    <title>ic_withdrawal</title>
    <g id="Page-1" stroke="none" stroke-width="1" fill="none" fill-rule="evenodd">
        <g id="iPhone-8" transform="translate(-26.000000, -544.000000)" fill="#000000" fill-rule="nonzero" stroke="#000000" stroke-width="0.4">
            <g id="ic_withdrawal" transform="translate(27.000000, 545.000000)">
                <path d="M17.5,8 C21.084,8 24,10.916 24,14.5 C24,18.084 21.084,21 17.5,21 C13.916,21 11,18.084 11,14.5 C11,10.916 13.916,8 17.5,8 Z M17.5,9 C14.468,9 12,11.467 12,14.5 C12,17.533 14.468,20 17.5,20 C20.532,20 23,17.533 23,14.5 C23,11.467 20.532,9 17.5,9 Z M21.5,0 C22.879,0 24,1.122 24,2.5 L24,8.5 C24,8.776 23.776,9 23.5,9 C23.224,9 23,8.776 23,8.5 L23,2.5 C23,1.673 22.327,1 21.5,1 L2.5,1 C1.673,1 1,1.673 1,2.5 L1,5 L7.5,5 C8.879,5 10,6.122 10,7.5 L10,10.5 C10,11.878 8.879,13 7.5,13 L1,13 L1,15.5 C1,16.327 1.673,17 2.5,17 L9.5,17 C9.776,17 10,17.224 10,17.5 C10,17.776 9.776,18 9.5,18 L2.5,18 C1.121,18 0,16.878 0,15.5 L0,2.5 C0,1.122 1.121,0 2.5,0 L21.5,0 Z M20.328,12.124 C20.536,12.306 20.557,12.622 20.375,12.83 L16.875,16.83 C16.784,16.934 16.654,16.996 16.516,17 L16.5,17 L16.5,17 C16.367,17 16.24,16.947 16.146,16.854 L14.146,14.854 C13.951,14.659 13.951,14.342 14.146,14.147 C14.341,13.952 14.658,13.952 14.853,14.147 L16.475,15.769 L19.623,12.171 C19.805,11.962 20.121,11.942 20.328,12.124 Z M7.5,6 L1,6 L1,12 L7.5,12 C8.327,12 9,11.327 9,10.5 L9,7.5 C9,6.673 8.327,6 7.5,6 Z M5,7 C6.103,7 7,7.897 7,9 C7,10.103 6.103,11 5,11 C3.897,11 3,10.103 3,9 C3,7.897 3.897,7 5,7 Z M5,8 C4.448,8 4,8.449 4,9 C4,9.551 4.448,10 5,10 C5.552,10 6,9.551 6,9 C6,8.449 5.552,8 5,8 Z" id="Combined-Shape"></path>
            </g>
        </g>
    </g>
</svg>