<?xml version="1.0" encoding="UTF-8"?>
<svg width="24px" height="24px" viewBox="0 0 24 24" version="1.1" xmlns="http://www.w3.org/2000/svg" xmlns:xlink="http://www.w3.org/1999/xlink">
    <title>ic_wallet_back</title>
    <g id="Page-1" stroke="none" stroke-width="1" fill="none" fill-rule="evenodd">
        <g id="iPhone-8" transform="translate(-287.000000, -535.000000)" fill="#000000" fill-rule="nonzero">
            <g id="ic_wallet_back" transform="translate(287.000000, 535.000000)">
                <g id="save-money" transform="translate(6.000000, 9.000000)">
                    <path d="M4.02424242,3.45454545 C6.20217395,3.45454545 7.96767677,5.10970436 7.96767677,7.15151515 C7.96767677,7.16158988 7.96763378,7.17165519 7.96754798,7.18171093 L7.96767677,7.21212121 C7.96767677,9.253932 6.20217395,10.9090909 4.02424242,10.9090909 C1.8463109,10.9090909 0.0808080808,9.253932 0.0808080808,7.21212121 C0.0808205294,7.2020514 0.0808758647,7.19199101 0.0809739247,7.18194019 L0.0808080808,7.15151515 C0.083330995,5.11070025 1.84737318,3.45678618 4.02424242,3.45454545 Z M4.02424242,4.02504403 C2.14759898,4.0270358 0.626817979,5.45276797 0.624693427,7.21212121 L0.624842357,7.18166331 C0.642102368,8.92800319 2.15740051,10.3385923 4.02424242,10.3385923 C5.90181537,10.3385923 7.42379142,8.9117398 7.42379142,7.15151515 L7.42364083,7.18180575 C7.4062857,5.43554308 5.89102472,4.02504403 4.02424242,4.02504403 Z M3.95959596,0.121212121 L4.01888418,0.127893605 C4.13311689,0.154113224 4.21818182,0.25443487 4.21818182,0.374176548 L4.21818182,0.374176548 L4.21818182,2.7773386 C4.21818182,2.91703723 4.102399,3.03030303 3.95959596,3.03030303 C3.81679292,3.03030303 3.7010101,2.91703723 3.7010101,2.7773386 L3.7010101,2.7773386 L3.7010101,0.374176548 C3.7010101,0.234477924 3.81679292,0.121212121 3.95959596,0.121212121 L3.95959596,0.121212121 Z M6.02828283,1.57575758 L6.09702172,1.58375168 C6.20646395,1.60980599 6.28686869,1.69655084 6.28686869,1.7995338 L6.28686869,1.7995338 L6.28686869,2.80652681 C6.28686869,2.93010636 6.17108587,3.03030303 6.02828283,3.03030303 C5.88547979,3.03030303 5.76969697,2.93010636 5.76969697,2.80652681 L5.76969697,2.80652681 L5.76969697,1.7995338 C5.76969697,1.67595425 5.88547979,1.57575758 6.02828283,1.57575758 L6.02828283,1.57575758 Z M1.89090909,1.57575758 C2.03371213,1.57575758 2.14949495,1.67595425 2.14949495,1.7995338 L2.14949495,1.7995338 L2.14949495,2.80652681 C2.14949495,2.93010636 2.03371213,3.03030303 1.89090909,3.03030303 C1.74810605,3.03030303 1.63232323,2.93010636 1.63232323,2.80652681 L1.63232323,2.80652681 L1.63232323,1.7995338 C1.63232323,1.67595425 1.74810605,1.57575758 1.89090909,1.57575758 Z M4.14545455,5.16677213 C4.28728294,5.16677213 4.40224467,5.25632213 4.40224467,5.36677213 L4.40224467,5.36677213 L4.40224467,5.58944713 C4.916178,5.68067213 5.3010101,6.03925963 5.3010101,6.46677213 C5.3010101,6.57722213 5.18604837,6.66677213 5.04421998,6.66677213 C4.90239158,6.66677213 4.78742985,6.57722213 4.78742985,6.46677213 C4.78742985,6.19107213 4.49943973,5.96677213 4.14545455,5.96677213 C3.79146936,5.96677213 3.50347924,6.19107213 3.50347924,6.46677213 C3.50347924,6.74247213 3.79146936,6.96677213 4.14545455,6.96677213 C4.78263109,6.96677213 5.3010101,7.37050963 5.3010101,7.86677213 C5.3010101,8.29428463 4.916178,8.65287213 4.40224467,8.74409713 L4.40224467,8.74409713 L4.40224467,8.96677213 C4.40224467,9.07722213 4.28728294,9.16677213 4.14545455,9.16677213 C4.00362615,9.16677213 3.88866442,9.07722213 3.88866442,8.96677213 L3.88866442,8.96677213 L3.88866442,8.74409713 C3.37473109,8.65287213 2.98989899,8.29428463 2.98989899,7.86677213 C2.98989899,7.75632213 3.10486072,7.66677213 3.24668911,7.66677213 C3.38851751,7.66677213 3.50347924,7.75632213 3.50347924,7.86677213 C3.50347924,8.14247213 3.79146936,8.36677213 4.14545455,8.36677213 C4.49943973,8.36677213 4.78742985,8.14247213 4.78742985,7.86677213 C4.78742985,7.59107213 4.49943973,7.36677213 4.14545455,7.36677213 C3.508278,7.36677213 2.98989899,6.96303463 2.98989899,6.46677213 C2.98989899,6.03925963 3.37473109,5.68067213 3.88866442,5.58944713 L3.88866442,5.58944713 L3.88866442,5.36677213 C3.88866442,5.25632213 4.00362615,5.16677213 4.14545455,5.16677213 Z M1.89090909,1.57575758 C2.03371213,1.57575758 2.14949495,1.67595425 2.14949495,1.7995338 L2.14949495,1.7995338 L2.14949495,2.80652681 C2.14949495,2.93010636 2.03371213,3.03030303 1.89090909,3.03030303 C1.74810605,3.03030303 1.63232323,2.93010636 1.63232323,2.80652681 L1.63232323,2.80652681 L1.63232323,1.7995338 C1.63232323,1.67595425 1.74810605,1.57575758 1.89090909,1.57575758 Z" id="Combined-Shape"></path>
                </g>
                <g id="wallet">
                    <path d="M22.8768,12.0836936 L22.8768,8.71526809 C22.8768,7.57307234 21.9908426,6.64417021 20.8714723,6.55409362 L17.7433021,1.09026383 C17.4534128,0.58493617 16.9853106,0.223761702 16.4251915,0.073787234 C15.8677277,-0.0751659574 15.284783,0.00306382979 14.7858383,0.29346383 L4.06228085,6.53652766 L2.17889362,6.53652766 C0.977310638,6.53652766 0.000153191489,7.51363404 0.000153191489,8.71526809 L0.000153191489,21.7876085 C0.000153191489,22.9891915 0.977259574,23.9663489 2.17889362,23.9663489 L20.6980596,23.9663489 C21.8996426,23.9663489 22.8768,22.9892426 22.8768,21.7876085 L22.8768,18.419183 C23.5094298,18.193583 23.9661447,17.5946553 23.9661447,16.8854809 L23.9661447,13.6173957 C23.9661447,12.9082213 23.5094298,12.3092936 22.8768,12.0836936 Z M19.6056511,6.53652766 L14.8581957,6.53652766 L18.4188255,4.46354043 L19.6056511,6.53652766 Z M17.8776,3.51819574 L12.6931404,6.53652766 L10.5426894,6.53652766 L17.3398979,2.57908085 L17.8776,3.51819574 Z M15.3342128,1.23492766 C15.5804936,1.09077447 15.8682383,1.0524766 16.1432681,1.12590638 C16.4214638,1.20035745 16.6533957,1.38015319 16.7975489,1.63174468 L16.7986723,1.63373617 L8.37773617,6.53652766 L6.22738723,6.53652766 L15.3342128,1.23492766 Z M21.7874043,21.7876085 C21.7874043,22.3881191 21.2985702,22.8769532 20.6980596,22.8769532 L2.17889362,22.8769532 C1.57838298,22.8769532 1.08954894,22.3881191 1.08954894,21.7876085 L1.08954894,8.71526809 C1.08954894,8.11475745 1.57838298,7.6259234 2.17889362,7.6259234 L20.6980596,7.6259234 C21.2985702,7.6259234 21.7874043,8.11475745 21.7874043,8.71526809 L21.7874043,11.9833532 L18.5193191,11.9833532 C16.7171745,11.9833532 15.251234,13.4492936 15.251234,15.2514383 C15.251234,17.053583 16.7171745,18.5195234 18.5193191,18.5195234 L21.7874043,18.5195234 L21.7874043,21.7876085 Z M22.8768,16.8854809 C22.8768,17.1859915 22.6326638,17.4301787 22.3321021,17.4301787 L18.5193191,17.4301787 C17.3177362,17.4301787 16.3405787,16.4530723 16.3405787,15.2514383 C16.3405787,14.0498553 17.3176851,13.0726979 18.5193191,13.0726979 L22.3321021,13.0726979 C22.6326128,13.0726979 22.8768,13.316834 22.8768,13.6173957 L22.8768,16.8854809 L22.8768,16.8854809 Z" id="Shape"></path>
                    <path d="M18.5193191,14.1620936 C17.9188085,14.1620936 17.4299745,14.6509277 17.4299745,15.2514383 C17.4299745,15.8519489 17.9188085,16.340783 18.5193191,16.340783 C19.1198298,16.340783 19.6086638,15.8519489 19.6086638,15.2514383 C19.6087149,14.6509277 19.1198809,14.1620936 18.5193191,14.1620936 Z" id="Path"></path>
                </g>
            </g>
        </g>
    </g>
</svg>