<?xml version="1.0" encoding="UTF-8"?>
<svg width="24px" height="24px" viewBox="0 0 24 24" version="1.1" xmlns="http://www.w3.org/2000/svg" xmlns:xlink="http://www.w3.org/1999/xlink">
    <title>ic_wallet_invest</title>
    <g id="Page-1" stroke="none" stroke-width="1" fill="none" fill-rule="evenodd">
        <g id="iPhone-8" transform="translate(-316.000000, -536.000000)">
            <g id="ic_wallet_invest" transform="translate(316.000000, 536.000000)">
                <g id="Group-3" transform="translate(5.000000, 9.000000)"></g>
                <g id="wallet" fill="#000000" fill-rule="nonzero">
                    <path d="M22.8768,12.0836936 L22.8768,8.71526809 C22.8768,7.57307234 21.9908426,6.64417021 20.8714723,6.55409362 L17.7433021,1.09026383 C17.4534128,0.58493617 16.9853106,0.223761702 16.4251915,0.073787234 C15.8677277,-0.0751659574 15.284783,0.00306382979 14.7858383,0.29346383 L4.06228085,6.53652766 L2.17889362,6.53652766 C0.977310638,6.53652766 0.000153191489,7.51363404 0.000153191489,8.71526809 L0.000153191489,21.7876085 C0.000153191489,22.9891915 0.977259574,23.9663489 2.17889362,23.9663489 L20.6980596,23.9663489 C21.8996426,23.9663489 22.8768,22.9892426 22.8768,21.7876085 L22.8768,18.419183 C23.5094298,18.193583 23.9661447,17.5946553 23.9661447,16.8854809 L23.9661447,13.6173957 C23.9661447,12.9082213 23.5094298,12.3092936 22.8768,12.0836936 Z M19.6056511,6.53652766 L14.8581957,6.53652766 L18.4188255,4.46354043 L19.6056511,6.53652766 Z M17.8776,3.51819574 L12.6931404,6.53652766 L10.5426894,6.53652766 L17.3398979,2.57908085 L17.8776,3.51819574 Z M15.3342128,1.23492766 C15.5804936,1.09077447 15.8682383,1.0524766 16.1432681,1.12590638 C16.4214638,1.20035745 16.6533957,1.38015319 16.7975489,1.63174468 L16.7986723,1.63373617 L8.37773617,6.53652766 L6.22738723,6.53652766 L15.3342128,1.23492766 Z M21.7874043,21.7876085 C21.7874043,22.3881191 21.2985702,22.8769532 20.6980596,22.8769532 L2.17889362,22.8769532 C1.57838298,22.8769532 1.08954894,22.3881191 1.08954894,21.7876085 L1.08954894,8.71526809 C1.08954894,8.11475745 1.57838298,7.6259234 2.17889362,7.6259234 L20.6980596,7.6259234 C21.2985702,7.6259234 21.7874043,8.11475745 21.7874043,8.71526809 L21.7874043,11.9833532 L18.5193191,11.9833532 C16.7171745,11.9833532 15.251234,13.4492936 15.251234,15.2514383 C15.251234,17.053583 16.7171745,18.5195234 18.5193191,18.5195234 L21.7874043,18.5195234 L21.7874043,21.7876085 Z M22.8768,16.8854809 C22.8768,17.1859915 22.6326638,17.4301787 22.3321021,17.4301787 L18.5193191,17.4301787 C17.3177362,17.4301787 16.3405787,16.4530723 16.3405787,15.2514383 C16.3405787,14.0498553 17.3176851,13.0726979 18.5193191,13.0726979 L22.3321021,13.0726979 C22.6326128,13.0726979 22.8768,13.316834 22.8768,13.6173957 L22.8768,16.8854809 L22.8768,16.8854809 Z" id="Shape"></path>
                    <path d="M18.5193191,14.1620936 C17.9188085,14.1620936 17.4299745,14.6509277 17.4299745,15.2514383 C17.4299745,15.8519489 17.9188085,16.340783 18.5193191,16.340783 C19.1198298,16.340783 19.6086638,15.8519489 19.6086638,15.2514383 C19.6087149,14.6509277 19.1198809,14.1620936 18.5193191,14.1620936 Z" id="Path"></path>
                    <path d="M8.72536819,10.2161093 C9.1213986,10.8486341 9.08891396,11.6770656 8.62918535,12.6788512 C9.38257866,13.6699247 9.87885357,15.0032654 10.0937057,16.6416551 C10.1278076,16.9010587 10.1533375,17.1568063 10.1723451,17.4059068 C10.2842164,17.1538192 10.4035068,16.9221371 10.5267659,16.7096219 C10.4585437,16.6821567 10.3885353,16.6507938 10.3176727,16.6172237 C10.2524228,16.5861586 10.2021056,16.5323331 10.177434,16.4672811 C10.1555217,16.4089958 9.64861691,15.0275253 10.4541783,14.0059169 C11.0396427,13.2632786 12.1404522,12.9287914 13.7278773,13.0126054 C13.8726609,13.020141 13.9880657,13.1300989 13.9952075,13.2675846 C14.0008885,13.3743129 14.1179164,15.8935011 12.7621126,16.7322565 C12.473844,16.9108034 12.1462955,17 11.7817396,17 C11.5828257,17 11.3729133,16.9734685 11.1523407,16.9204202 C10.7381226,17.6102907 10.3617051,18.5347678 10.1775628,19.7455239 C10.1374978,20.3374491 10.0797295,20.7148389 10.0743254,20.7494039 C10.0517771,20.8943109 9.91294696,21 9.75212756,21 C9.74187834,21 9.73162912,20.9995015 9.72119356,20.9986706 C9.54770245,20.9840469 9.417817,20.8502738 9.42657542,20.6948976 C9.44576941,20.353236 9.47856687,20.0291894 9.52310431,19.7220928 C9.62756979,18.137261 9.60993103,14.9286096 8.04052505,12.935635 C7.86400072,12.9712282 7.64834581,13 7.41327031,13 C6.97557478,13 6.47065012,12.9001672 6.02998861,12.5566163 C5.28255889,11.9735568 4.93906889,10.8635188 5.00884031,9.25747429 C5.01477227,9.12321126 5.11476854,9.01525955 5.24089377,9.00729098 C5.25614743,9.0063674 5.3207997,9.00264546 5.42290464,9.00090524 L5.60265835,9.00037874 C6.35379973,9.00827976 8.05720307,9.14842717 8.72536819,10.2161093 Z M10.9086559,14.327486 C10.3912007,14.9840035 10.592307,15.887042 10.6794693,16.1858505 L10.8211555,16.2462182 C11.6117639,15.1080815 12.4514743,14.6713488 12.514755,14.6397114 C12.6712884,14.5607769 12.8699366,14.6109626 12.9582662,14.7503857 C13.0460367,14.8899751 12.9908773,15.0666221 12.834903,15.1453903 C12.8155832,15.1554481 12.1486329,15.5122519 11.4733744,16.4329924 C11.8596163,16.4974443 12.1868023,16.4464125 12.452094,16.2822751 C13.2560322,15.7847735 13.4298699,14.307955 13.43409,13.5393266 C12.1902825,13.5105684 11.3434934,13.7761589 10.9086559,14.327486 Z M5.49469788,9.52434651 C5.47337098,10.8107458 5.75118547,11.6875901 6.32164437,12.1326277 C6.72701991,12.4487804 7.22030348,12.497539 7.61565498,12.4659218 C7.22260695,12.0863166 6.75399073,11.7744565 6.19527961,11.5564486 C6.03054689,11.4921378 5.95526179,11.3209747 6.02737896,11.1739074 C6.09930974,11.0271724 6.29180854,10.9602027 6.45635489,11.0243474 C7.15246865,11.2959419 7.75870812,11.7083755 8.26930349,12.2527878 L8.23047141,12.3479297 C8.56591088,11.573023 8.59429964,10.9543305 8.31464906,10.5074887 C7.79489446,9.67695232 6.27065759,9.51457373 5.49469788,9.52434651 Z" id="Combined-Shape"></path>
                </g>
            </g>
        </g>
    </g>
</svg>